<svg xmlns="http://www.w3.org/2000/svg" width="500" height="500" viewBox="0 0 500 500"><path d="M250 0C111.928 0 0 111.927 0 250c0 138.077 111.927 250 250 250 138.073 0 250-111.923 250-250C500 111.928 388.073 0 250 0zm0 458.943C134.79 458.943 41.06 365.21 41.06 250c0-115.207 93.73-208.94 208.94-208.94S458.94 134.793 458.94 250c0 115.21-93.73 208.943-208.94 208.943z"/><path d="M404.462 201.172c-.028-.195-.076-.382-.11-.577a13.1 13.1 0 0 0-.23-1.114c-.058-.22-.14-.43-.207-.64a13.765 13.765 0 0 0-.342-.97c-.09-.22-.196-.43-.297-.65-.14-.3-.285-.59-.452-.87-.122-.212-.25-.416-.377-.62a12.08 12.08 0 0 0-.562-.805c-.146-.194-.3-.39-.454-.577a13.147 13.147 0 0 0-.66-.716 8.65 8.65 0 0 0-.53-.52c-.24-.22-.49-.432-.75-.634-.2-.155-.392-.31-.6-.456-.08-.05-.145-.117-.22-.166l-141.296-94.2a13.28 13.28 0 0 0-14.74 0L101.338 191.85c-.073.05-.142.115-.22.164-.207.146-.402.3-.597.456-.26.207-.513.42-.753.637-.187.164-.357.342-.533.52a11.617 11.617 0 0 0-1.115 1.294c-.196.26-.384.53-.558.81-.134.203-.26.406-.382.618-.163.284-.31.577-.45.877-.103.21-.21.43-.298.65-.13.318-.238.643-.34.97-.07.21-.15.42-.21.64-.098.367-.16.74-.23 1.115-.034.194-.08.38-.108.576-.078.57-.123 1.15-.123 1.735v94.19c0 .587.044 1.164.12 1.74.028.19.077.384.11.57.07.374.13.748.23 1.114.06.22.14.432.21.643.1.324.21.65.34.975.09.223.192.434.294.646.143.3.29.592.45.885.123.205.25.407.383.61.173.277.36.546.556.807.146.203.3.39.46.577.207.243.426.488.657.716.172.172.343.35.53.52.24.22.492.43.752.63.194.154.39.31.597.453.075.05.144.115.22.163l141.293 94.2a13.286 13.286 0 0 0 7.372 2.234c2.566 0 5.135-.75 7.368-2.234l141.297-94.2c.075-.047.143-.112.22-.162.208-.144.404-.3.603-.453.256-.203.508-.414.752-.635.18-.163.352-.343.526-.52.238-.23.458-.474.67-.717.155-.187.31-.374.455-.577.2-.26.384-.53.563-.806.126-.204.255-.406.377-.61.166-.293.31-.585.45-.885.1-.212.207-.423.298-.645.13-.324.236-.65.343-.975.068-.21.15-.423.206-.643.1-.366.17-.74.234-1.114.033-.187.08-.38.11-.568.072-.578.118-1.155.118-1.74v-94.197c0-.585-.044-1.162-.117-1.73zm-141.176-67.64l104.088 69.388-46.493 31.103-57.59-38.527v-61.963zm-26.57 0v61.964l-57.593 38.527-46.497-31.103 104.09-69.387zm-114.726 94.24L155.228 250l-33.238 22.233V227.77zm114.725 138.7l-104.088-69.39 46.497-31.093 57.592 38.52v61.96zM250 281.43L203.014 250 250 218.574l46.986 31.428L250 281.432zm13.286 85.04v-61.963l57.595-38.52 46.5 31.093-104.09 69.388zm114.724-94.238L344.777 250l33.233-22.23v44.464z"/></svg>