<svg xmlns="http://www.w3.org/2000/svg" width="512" height="512" viewBox="0 0 512 512"><path d="M464.313 255.99c0 114.873-93.44 208.313-208.28 208.313-114.894 0-208.314-93.44-208.314-208.313 0-114.873 93.43-208.313 208.31-208.313 114.84 0 208.28 93.44 208.28 208.313zM256.03 19.845c-130.273 0-236.195 105.933-236.195 236.144 0 130.23 105.922 236.173 236.196 236.173 130.183 0 236.146-105.943 236.146-236.175-.01-130.223-105.964-236.145-236.144-236.145z"/><path d="M160.297 53.504c1.638 2.007 165.51 202.66 173.394 404.572l27.865-1.086C353.26 245.575 188.785 44.195 181.79 35.788l-21.493 17.715z"/><path d="M28.907 229.09c2.407.654 239.442 64.562 388.045-122.533L395.11 89.24c-137.165 172.72-356.454 113.645-358.646 113l-7.557 26.85zm87.07 197.693v.04c4.916-9.522 123.137-231.238 353.26-141.956l10.128-25.98C225.69 160.42 92.56 411.475 91.197 414.025l24.78 12.76z"/></svg>