<svg xmlns="http://www.w3.org/2000/svg" width="97" height="97" viewBox="0 0 97 97"><path fill="#F05133" d="M92.71 44.408L52.59 4.29a5.918 5.918 0 0 0-8.368 0l-8.33 8.333L46.46 23.19a7.022 7.022 0 0 1 7.228 1.685 7.03 7.03 0 0 1 1.67 7.275l10.186 10.185a7.028 7.028 0 0 1 7.275 1.67 7.043 7.043 0 0 1-9.96 9.958 7.043 7.043 0 0 1-1.534-7.657l-9.5-9.5v24.998a7.042 7.042 0 1 1-8.096 11.29A7.042 7.042 0 0 1 46.038 61.6V36.37a7.04 7.04 0 0 1-3.823-9.235L31.8 16.715 4.288 44.22a5.92 5.92 0 0 0 0 8.37l40.12 40.12a5.918 5.918 0 0 0 8.37 0L92.71 52.778a5.92 5.92 0 0 0 0-8.372z"/></svg>